# xmcd
#
# Track frame offsets: 
#        150
#        18597
#        26882
#        42315
#        55010
#        72930
#        87862
#        100870
#        116802
#        128637
#        142875
#        154482
#        170937
#        201665
#
# Disc length: 2847 seconds
#
# Revision: 1
# Processed by: cddbd v1.5.2PL0 Copyright (c) Steve Scherf et al.
# Submitted via: ExactAudioCopy v0.99pb5
#
DISCID=ce0b1d0e
DTITLE=Vinicius de Moraes - Pure Bossa Nova
DYEAR=2005
DGENRE=Bossa-Nova
TTITLE0=Minha Namorada 
TTITLE1=Chega de Saudade
TTITLE2=Canto de Ossanha
TTITLE3=Agua de Beber
TTITLE4=Insensatez
TTITLE5=Sabe Voce
TTITLE6=Samba da Volta
TTITLE7=Samba em Preludio
TTITLE8=Samba de Orly (Samba de Fiumicino)
TTITLE9=Pra que chorar
TTITLE10=Ela E carioca
TTITLE11=Se Todos Fossem Iguais a Voce
TTITLE12=Samba da Bencao
TTITLE13=Carta ao Tom
EXTD=YEAR: 2005
EXTT0=
EXTT1=
EXTT2=
EXTT3=
EXTT4=
EXTT5=
EXTT6=
EXTT7=
EXTT8=
EXTT9=
EXTT10=
EXTT11=
EXTT12=
EXTT13=
PLAYORDER=
